# xmcd
#
# Track frame offsets: 
#        200
#        16227
#        26885
#        47715
#        60967
#        76475
#        90932
#        100892
#        119867
#        129762
#        140007
#        154000
#
# Disc length: 2239 seconds
#
# Revision: 2
# Processed by: cddbd v1.5.1PL0 Copyright (c) Steve Scherf et al.
# Submitted via: ExactAudioCopy v0.95a5
#
DISCID=9408bd0c
DTITLE=Ranch Romance - Western Dream
DYEAR=1990
DGENRE=Country
TTITLE0=When The Bloom Is On The Sage
TTITLE1=Lovesick Blues
TTITLE2=Baby's On The Town
TTITLE3=St. Louis Blues
TTITLE4=Cowboys and Indians
TTITLE5=St. James Avenue
TTITLE6=Gotta Lotta Rhythm (In My Soul)
TTITLE7=Ain't No Ash Will Burn
TTITLE8=Why Don't You Love Me (Like You Used To Do)
TTITLE9=Birmingham Fling
TTITLE10=The Last One To Know
TTITLE11=Western Dream
EXTD=
EXTT0=
EXTT1=
EXTT2=
EXTT3=
EXTT4=
EXTT5=
EXTT6=
EXTT7=
EXTT8=
EXTT9=
EXTT10=
EXTT11=
PLAYORDER=
